<?xml version="1.0" encoding="UTF-8"?>
<svg width="96px" height="84px" viewBox="0 0 96 84" version="1.1" xmlns="http://www.w3.org/2000/svg" xmlns:xlink="http://www.w3.org/1999/xlink">
    <!-- Generator: Sketch 39.1 (31720) - http://www.bohemiancoding.com/sketch -->
    <title>Shape</title>
    <desc>Created with Sketch.</desc>
    <defs></defs>
    <g id="Page-1" stroke="none" stroke-width="1" fill="none" fill-rule="evenodd">
        <g id="bed" transform="translate(0.000000, -1.000000)" fill="#78909C">
            <g id="Page-1">
                <g id="noun_1137022_cc">
                    <path d="M95.396,26.864 C95.393,26.856 95.398,26.847 95.393,26.839 C95.388,26.83 95.377,26.83 95.372,26.822 C95.36,26.807 95.351,26.797 95.337,26.785 C95.329,26.779 95.328,26.768 95.319,26.764 L50.664,0.996 C50.656,0.991 50.646,0.996 50.638,0.993 C50.614,0.983 50.592,0.984 50.567,0.984 C50.54,0.984 50.517,0.983 50.493,0.993 C50.484,0.996 50.475,0.992 50.467,0.996 L49.237,1.694 C49.228,1.699 49.228,1.71 49.22,1.715 C49.204,1.726 49.195,1.736 49.183,1.751 C49.177,1.759 49.167,1.759 49.162,1.768 C49.158,1.776 49.162,1.786 49.159,1.794 C49.152,1.811 49.148,1.824 49.146,1.842 C49.144,1.852 49.135,1.858 49.135,1.868 L49.135,13.788 L1.886,41.095 C1.878,41.1 1.877,41.111 1.87,41.117 C1.856,41.128 1.846,41.138 1.835,41.152 C1.829,41.159 1.818,41.16 1.814,41.169 C1.81,41.178 1.814,41.187 1.811,41.196 C1.804,41.213 1.8,41.226 1.798,41.244 C1.797,41.253 1.788,41.259 1.788,41.269 L1.788,46.306 L0.89,46.812 C0.882,46.818 0.881,46.828 0.873,46.833 C0.858,46.845 0.848,46.854 0.837,46.869 C0.831,46.877 0.82,46.878 0.816,46.886 C0.812,46.894 0.816,46.904 0.813,46.912 C0.806,46.929 0.803,46.942 0.8,46.96 C0.799,46.97 0.789,46.976 0.789,46.985 L0.789,58.458 C0.789,58.468 0.798,58.474 0.799,58.482 C0.802,58.508 0.814,58.527 0.827,58.549 C0.84,58.572 0.851,58.592 0.872,58.609 C0.879,58.615 0.88,58.626 0.888,58.63 L3.348,60.06 C3.38,60.08 3.414,60.087 3.449,60.087 C3.483,60.087 3.517,60.079 3.549,60.061 L6.043,58.631 C6.051,58.626 6.052,58.615 6.06,58.61 C6.081,58.593 6.092,58.575 6.105,58.551 C6.118,58.529 6.129,58.509 6.133,58.484 C6.134,58.474 6.144,58.468 6.144,58.459 L6.144,55.912 L42.95,77.193 L42.95,82.798 C42.95,82.808 42.959,82.814 42.961,82.823 C42.964,82.848 42.976,82.868 42.989,82.89 C43.003,82.913 43.013,82.932 43.034,82.949 C43.041,82.955 43.042,82.966 43.051,82.97 L45.545,84.399 C45.577,84.417 45.611,84.426 45.645,84.426 C45.679,84.426 45.714,84.416 45.746,84.399 L48.206,82.969 C48.214,82.965 48.215,82.954 48.222,82.948 C48.243,82.931 48.254,82.912 48.267,82.888 C48.28,82.866 48.292,82.847 48.295,82.821 C48.296,82.812 48.305,82.806 48.305,82.797 L48.305,77.192 L90.065,53.052 L90.065,55.564 C90.065,55.574 90.074,55.58 90.075,55.588 C90.079,55.614 90.091,55.633 90.103,55.655 C90.117,55.679 90.127,55.699 90.149,55.715 C90.156,55.721 90.156,55.731 90.165,55.736 L92.658,57.2 C92.69,57.219 92.724,57.228 92.759,57.228 C92.794,57.228 92.829,57.218 92.862,57.199 L95.322,55.735 C95.33,55.73 95.331,55.72 95.338,55.714 C95.359,55.698 95.369,55.678 95.383,55.654 C95.397,55.63 95.408,55.612 95.411,55.587 C95.412,55.577 95.421,55.571 95.421,55.563 L95.421,26.938 C95.421,26.928 95.412,26.922 95.41,26.913 C95.406,26.895 95.402,26.881 95.396,26.864 L95.396,26.864 L95.396,26.864 Z M90.465,52.822 L92.559,51.622 L92.559,56.681 L90.465,55.452 L90.465,52.822 L90.465,52.822 L90.465,52.822 Z M92.938,51.229 C92.933,51.211 92.941,51.194 92.931,51.178 C92.926,51.169 92.915,51.168 92.91,51.16 C92.894,51.139 92.875,51.129 92.852,51.115 C92.829,51.101 92.81,51.091 92.784,51.088 C92.774,51.086 92.768,51.076 92.758,51.076 C92.739,51.076 92.727,51.092 92.709,51.097 C92.692,51.101 92.675,51.093 92.658,51.103 L90.165,52.533 C90.165,52.533 90.165,52.533 90.164,52.533 L48.004,76.904 C47.995,76.91 47.995,76.92 47.987,76.925 C47.966,76.942 47.956,76.961 47.942,76.984 C47.929,77.007 47.917,77.027 47.914,77.052 C47.913,77.062 47.904,77.068 47.904,77.077 L47.904,82.682 L45.844,83.877 L45.844,72.871 L94.089,44.998 C94.098,44.994 94.098,44.982 94.106,44.977 C94.122,44.965 94.131,44.954 94.143,44.938 C94.148,44.931 94.158,44.934 94.162,44.926 C94.167,44.918 94.162,44.908 94.166,44.9 C94.173,44.883 94.177,44.87 94.18,44.85 C94.181,44.841 94.191,44.835 94.191,44.826 L94.191,27.751 L95.02,27.28 L95.02,55.451 L92.96,56.677 L92.96,51.277 C92.959,51.258 92.943,51.246 92.938,51.229 L92.938,51.229 L92.938,51.229 Z M43.34,77.053 C43.337,77.028 43.325,77.008 43.312,76.985 C43.298,76.963 43.288,76.943 43.267,76.926 C43.259,76.92 43.259,76.91 43.25,76.905 L6.043,55.393 L6.043,55.393 L3.549,53.962 C3.533,53.953 3.515,53.96 3.498,53.955 C3.48,53.95 3.468,53.935 3.449,53.935 C3.439,53.935 3.433,53.944 3.423,53.945 C3.397,53.949 3.379,53.961 3.356,53.973 C3.333,53.986 3.313,53.997 3.296,54.019 C3.291,54.027 3.28,54.027 3.275,54.035 C3.266,54.052 3.273,54.069 3.269,54.086 C3.264,54.104 3.248,54.116 3.248,54.135 L3.248,59.541 L1.188,58.344 L1.188,47.334 L45.442,72.871 L45.442,83.882 L43.349,82.683 L43.349,77.079 C43.35,77.068 43.341,77.062 43.34,77.053 L43.34,77.053 L43.34,77.053 Z M3.649,54.48 L5.742,55.681 L5.742,58.342 L3.649,59.542 L3.649,54.48 L3.649,54.48 L3.649,54.48 Z M50.563,1.399 L94.816,26.936 L93.99,27.405 L49.736,1.868 L50.563,1.399 L50.563,1.399 L50.563,1.399 Z M45.844,66.588 L92.824,39.454 L92.824,44.26 L92.824,44.709 L45.844,71.844 L45.844,66.588 L45.844,66.588 L45.844,66.588 Z M93.215,39.082 C93.213,39.064 93.209,39.05 93.201,39.034 C93.198,39.025 93.203,39.015 93.198,39.007 C93.193,38.999 93.182,38.998 93.177,38.99 C93.166,38.976 93.156,38.966 93.142,38.955 C93.134,38.949 93.134,38.938 93.125,38.934 L49.534,13.787 L49.534,2.213 L93.789,27.751 L93.789,44.477 L93.225,44.147 L93.225,39.107 C93.225,39.097 93.216,39.091 93.215,39.082 L93.215,39.082 L93.215,39.082 Z M49.334,14.134 L92.625,39.107 L45.644,66.241 L2.387,41.269 L49.334,14.134 L49.334,14.134 L49.334,14.134 Z M45.443,66.588 L45.443,71.844 L2.187,46.871 L2.187,46.422 L2.187,41.615 L45.443,66.588 L45.443,66.588 L45.443,66.588 Z M1.797,47.012 C1.8,47.038 1.812,47.057 1.825,47.08 C1.838,47.103 1.848,47.123 1.869,47.139 C1.876,47.145 1.877,47.156 1.886,47.16 L45.543,72.363 C45.575,72.382 45.609,72.39 45.643,72.39 C45.677,72.39 45.711,72.381 45.743,72.363 L93.124,44.998 C93.133,44.994 93.133,44.982 93.141,44.977 C93.162,44.961 93.172,44.942 93.186,44.918 C93.199,44.896 93.21,44.877 93.214,44.85 C93.215,44.841 93.224,44.835 93.224,44.826 L93.224,44.61 L93.59,44.825 L45.644,72.525 L1.392,46.988 L1.787,46.765 L1.787,46.986 C1.786,46.996 1.795,47.002 1.797,47.012 L1.797,47.012 L1.797,47.012 Z" id="Shape"></path>
                </g>
            </g>
        </g>
    </g>
</svg>