<?xml version="1.0" encoding="UTF-8"?>
<svg width="71px" height="81px" viewBox="0 0 71 81" version="1.1" xmlns="http://www.w3.org/2000/svg" xmlns:xlink="http://www.w3.org/1999/xlink">
    <!-- Generator: Sketch 39.1 (31720) - http://www.bohemiancoding.com/sketch -->
    <title>noun_419867_cc</title>
    <desc>Created with Sketch.</desc>
    <defs></defs>
    <g id="Page-1" stroke="none" stroke-width="1" fill="none" fill-rule="evenodd">
        <g id="noun_419867_cc">
            <polygon id="Shape" fill="#89837B" points="35.75 40.5 35.25 40.5 35.25 80.5 35.75 80.5"></polygon>
            <polygon id="Shape" fill="#89837B" points="70.385 20.5 69.885 20.5 69.885 60.5 70.385 60.5"></polygon>
            <g id="Group" transform="translate(35.000000, 0.000000)" stroke="#010101" stroke-width="0.25" fill="#000000">
                <path d="M0.5,40.5 L0.5,40" id="Shape"></path>
                <path d="M0.5,39 L0.5,1.5" id="Shape" stroke-dasharray="1,1"></path>
                <path d="M0.5,1 L0.5,0.5" id="Shape"></path>
            </g>
            <polygon id="Shape" fill="#89837B" points="70.2600163 60.7164969 70.0099837 60.2835031 35.3749837 80.2835031 35.6250163 80.7164969"></polygon>
            <path d="M69.3315203,59.8916864 L69.2065041,60.1081833 L70.0724919,60.6082485 L70.1975081,60.3917515 L69.3315203,59.8916864 Z M67.5995448,58.8915561 L67.4745285,59.1080531 L68.3405163,59.6081182 L68.4655326,59.3916213 L67.5995448,58.8915561 Z M65.8675692,57.8914259 L65.7425529,58.1079228 L66.6085407,58.6079879 L66.733557,58.391491 L65.8675692,57.8914259 Z M64.1355936,56.8912956 L64.0105773,57.1077925 L64.8765651,57.6078577 L65.0015814,57.3913607 L64.1355936,56.8912956 Z M62.403618,55.8911653 L62.2786017,56.1076623 L63.1445895,56.6077274 L63.2696058,56.3912305 L62.403618,55.8911653 Z M60.6716424,54.8910351 L60.5466261,55.107532 L61.4126139,55.6075971 L61.5376302,55.3911002 L60.6716424,54.8910351 Z M58.9396668,53.8909048 L58.8146505,54.1074017 L59.6806383,54.6074669 L59.8056546,54.3909699 L58.9396668,53.8909048 Z M57.2076912,52.8907745 L57.0826749,53.1072715 L57.9486627,53.6073366 L58.073679,53.3908397 L57.2076912,52.8907745 Z M55.4757156,51.8906443 L55.3506993,52.1071412 L56.2166871,52.6072063 L56.3417034,52.3907094 L55.4757156,51.8906443 Z M53.74374,50.890514 L53.6187237,51.1070109 L54.4847115,51.6070761 L54.6097278,51.3905791 L53.74374,50.890514 Z M52.0117644,49.8903837 L51.8867482,50.1068807 L52.7527359,50.6069458 L52.8777522,50.3904488 L52.0117644,49.8903837 Z M50.2797888,48.8902534 L50.1547726,49.1067504 L51.0207604,49.6068155 L51.1457766,49.3903186 L50.2797888,48.8902534 Z M48.5478133,47.8901232 L48.422797,48.1066201 L49.2887848,48.6066853 L49.413801,48.3901883 L48.5478133,47.8901232 Z M46.8158377,46.8899929 L46.6908214,47.1064899 L47.5568092,47.606555 L47.6818255,47.390058 L46.8158377,46.8899929 Z M45.0838621,45.8898626 L44.9588458,46.1063596 L45.8248336,46.6064247 L45.9498499,46.3899278 L45.0838621,45.8898626 Z M43.3518865,44.8897324 L43.2268702,45.1062293 L44.092858,45.6062945 L44.2178743,45.3897975 L43.3518865,44.8897324 Z M41.6199109,43.8896021 L41.4948946,44.1060991 L42.3608824,44.6061642 L42.4858987,44.3896672 L41.6199109,43.8896021 Z M39.8879353,42.8894718 L39.762919,43.1059688 L40.6289068,43.6060339 L40.7539231,43.389537 L39.8879353,42.8894718 Z M38.1559597,41.8893416 L38.0309434,42.1058385 L38.8969312,42.6059037 L39.0219475,42.3894067 L38.1559597,41.8893416 Z M36.4239841,40.8892113 L36.2989678,41.1057083 L37.1649556,41.6057734 L37.2899719,41.3892764 L36.4239841,40.8892113 Z" id="Shape" fill="#89837B"></path>
            <polygon id="Shape" fill="#89837B" points="70.2600163 20.7164969 70.0099837 20.2835031 35.3749837 40.2835031 35.6250163 40.7164969"></polygon>
            <polygon id="Shape" fill="#89837B" points="35.6250163 0.283503051 35.3749837 0.716496949 70.0099837 20.7164969 70.2600163 20.2835031"></polygon>
            <polygon id="Shape" fill="#89837B" points="1.115 20.5 0.615 20.5 0.615 60.5 1.115 60.5"></polygon>
            <polygon id="Shape" fill="#89837B" points="0.990016283 60.2835031 0.739983717 60.7164969 35.3749837 80.7164969 35.6250163 80.2835031"></polygon>
            <path d="M1.79349594,60.1081833 L1.66847965,59.8916864 L0.802491858,60.3917515 L0.927508142,60.6082485 L1.79349594,60.1081833 Z M3.52547153,59.1080531 L3.40045524,58.8915561 L2.53446745,59.3916213 L2.65948373,59.6081182 L3.52547153,59.1080531 Z M5.25744712,58.1079228 L5.13243084,57.8914259 L4.26644304,58.391491 L4.39145932,58.6079879 L5.25744712,58.1079228 Z M6.98942271,57.1077925 L6.86440643,56.8912956 L5.99841863,57.3913607 L6.12343491,57.6078577 L6.98942271,57.1077925 Z M8.7213983,56.1076623 L8.59638202,55.8911653 L7.73039422,56.3912305 L7.85541051,56.6077274 L8.7213983,56.1076623 Z M10.4533739,55.107532 L10.3283576,54.8910351 L9.46236981,55.3911002 L9.5873861,55.6075971 L10.4533739,55.107532 Z M12.1853495,54.1074017 L12.0603332,53.8909048 L11.1943454,54.3909699 L11.3193617,54.6074669 L12.1853495,54.1074017 Z M13.9173251,53.1072715 L13.7923088,52.8907745 L12.926321,53.3908397 L13.0513373,53.6073366 L13.9173251,53.1072715 Z M15.6493007,52.1071412 L15.5242844,51.8906443 L14.6582966,52.3907094 L14.7833129,52.6072063 L15.6493007,52.1071412 Z M17.3812763,51.1070109 L17.25626,50.890514 L16.3902722,51.3905791 L16.5152885,51.6070761 L17.3812763,51.1070109 Z M19.1132518,50.1068807 L18.9882356,49.8903837 L18.1222478,50.3904488 L18.2472641,50.6069458 L19.1132518,50.1068807 Z M20.8452274,49.1067504 L20.7202112,48.8902534 L19.8542234,49.3903186 L19.9792396,49.6068155 L20.8452274,49.1067504 Z M22.577203,48.1066201 L22.4521867,47.8901232 L21.586199,48.3901883 L21.7112152,48.6066853 L22.577203,48.1066201 Z M24.3091786,47.1064899 L24.1841623,46.8899929 L23.3181745,47.390058 L23.4431908,47.606555 L24.3091786,47.1064899 Z M26.0411542,46.1063596 L25.9161379,45.8898626 L25.0501501,46.3899278 L25.1751664,46.6064247 L26.0411542,46.1063596 Z M27.7731298,45.1062293 L27.6481135,44.8897324 L26.7821257,45.3897975 L26.907142,45.6062945 L27.7731298,45.1062293 Z M29.5051054,44.1060991 L29.3800891,43.8896021 L28.5141013,44.3896672 L28.6391176,44.6061642 L29.5051054,44.1060991 Z M31.237081,43.1059688 L31.1120647,42.8894718 L30.2460769,43.389537 L30.3710932,43.6060339 L31.237081,43.1059688 Z M32.9690566,42.1058385 L32.8440403,41.8893416 L31.9780525,42.3894067 L32.1030688,42.6059037 L32.9690566,42.1058385 Z M34.7010322,41.1057083 L34.5760159,40.8892113 L33.7100281,41.3892764 L33.8350444,41.6057734 L34.7010322,41.1057083 Z" id="Shape" fill="#89837B"></path>
            <polygon id="Shape" fill="#89837B" points="0.990016283 20.2835031 0.739983717 20.7164969 35.3749837 40.7164969 35.6250163 40.2835031"></polygon>
            <polygon id="Shape" fill="#89837B" points="35.6250163 0.716496949 35.3749837 0.283503051 0.739983717 20.2835031 0.990016283 20.7164969"></polygon>
        </g>
    </g>
</svg>