<?xml version="1.0" encoding="UTF-8"?>
<svg width="80px" height="92px" viewBox="0 0 80 92" version="1.1" xmlns="http://www.w3.org/2000/svg" xmlns:xlink="http://www.w3.org/1999/xlink">
    <!-- Generator: Sketch 39.1 (31720) - http://www.bohemiancoding.com/sketch -->
    <title>noun_106294_cc</title>
    <desc>Created with Sketch.</desc>
    <defs></defs>
    <g id="Page-1" stroke="none" stroke-width="1" fill="none" fill-rule="evenodd">
        <g id="noun_106294_cc" fill="#89837B">
            <g id="Group">
                <path d="M79.471,22.634 L40.5,0.134 C40.19,-0.045 39.81,-0.045 39.5,0.134 L0.529,22.634 C0.219,22.813 0.029,23.143 0.029,23.5 L0.029,68.5 C0.029,68.857 0.219,69.188 0.529,69.366 L39.5,91.866 C39.655,91.956 39.827,92 40,92 C40.173,92 40.345,91.956 40.5,91.866 L79.471,69.366 C79.783,69.187 79.971,68.857 79.971,68.5 L79.971,23.5 C79.971,23.143 79.781,22.813 79.471,22.634 L79.471,22.634 Z M58.32,56.768 L58.777,55.975 L56.611,54.725 L55.861,56.024 L57.736,57.106 L41,66.768 L41,46.746 L41.146,46.494 L60.652,35.232 L60.193,36.025 L62.359,37.275 L63.109,35.976 L61.236,34.894 L77.972,25.232 L77.972,45.255 L77.826,45.506 L58.32,56.768 L58.32,56.768 Z M21.212,78.482 L20.765,78.74 L2.175,68.007 L2.029,67.755 L2.029,47.732 L18.765,57.394 L16.891,58.476 L17.641,59.775 L19.807,58.525 L19.349,57.732 L38.25,68.645 L36.376,69.727 L37.126,71.026 L39,69.943 L39,89.27 L21.659,79.257 L21.212,78.482 L21.212,78.482 Z M40.145,2.239 L76.971,23.5 L58.32,34.268 L58.777,33.475 L56.611,32.224 L55.861,33.523 L57.736,34.605 L40.144,44.762 L39.855,44.762 L22.265,34.606 L24.139,33.524 L23.389,32.225 L21.223,33.476 L21.681,34.269 L3.029,23.5 L39.855,2.239 L40.145,2.239 L40.145,2.239 Z M18.764,34.895 L16.89,35.977 L17.64,37.276 L19.806,36.026 L19.348,35.233 L38.855,46.495 L39,46.745 L39,66.767 L22.265,57.105 L24.139,56.023 L23.389,54.724 L21.223,55.976 L21.681,56.769 L2.174,45.506 L2.029,45.255 L2.029,25.232 L18.764,34.895 L18.764,34.895 Z M39,69.27 L38.834,68.981 L39,69.078 L39,69.27 L39,69.27 Z M41,69.078 L41.167,68.982 L41,69.27 L41,69.078 L41,69.078 Z M41,69.943 L42.875,71.025 L43.625,69.726 L41.751,68.644 L60.652,57.73 L60.195,58.523 L62.361,59.773 L63.111,58.474 L61.236,57.392 L77.972,47.73 L77.972,67.752 L77.826,68.004 L59.236,78.74 L58.789,78.482 L58.341,79.255 L41,89.268 L41,69.943 L41,69.943 Z" id="Shape"></path>
                <rect id="Rectangle-path" x="39.25" y="14.745" width="1.5" height="2.501"></rect>
                <rect id="Rectangle-path" x="39.25" y="34.756" width="1.5" height="2.501"></rect>
                <rect id="Rectangle-path" x="39.25" y="9.743" width="1.5" height="2.501"></rect>
                <rect id="Rectangle-path" x="39.25" y="4.74" width="1.5" height="2.501"></rect>
                <rect id="Rectangle-path" x="39.25" y="29.754" width="1.5" height="2.501"></rect>
                <rect id="Rectangle-path" x="39.25" y="19.748" width="1.5" height="2.501"></rect>
                <path d="M39.25,24.751 L39.25,27.252 L40.75,27.252 L40.75,24.751 L40.708,24.751 L41.447,23.471 L40.374,22.851 L40,23.5 L39.625,22.851 L38.553,23.471 L39.293,24.751 L39.25,24.751 L39.25,24.751 Z M40,24.366 L40.665,24.75 L39.335,24.75 L40,24.366 L40,24.366 Z" id="Shape"></path>
                <rect id="Rectangle-path" x="39.25" y="39.759" width="1.5" height="2.501"></rect>
                <rect id="Rectangle-path" transform="translate(14.014197, 60.999217) rotate(239.978656) translate(-14.014197, -60.999217) " x="13.2642311" y="59.7492729" width="1.5" height="2.5"></rect>
                <rect id="Rectangle-path" transform="translate(5.346406, 66.004079) rotate(240.032677) translate(-5.346406, -66.004079) " x="4.59541508" y="64.7535944" width="1.502" height="2.501"></rect>
                <rect id="Rectangle-path" transform="translate(9.681661, 63.501161) rotate(239.978656) translate(-9.681661, -63.501161) " x="8.93169515" y="62.2507178" width="1.5" height="2.501"></rect>
                <rect id="Rectangle-path" transform="translate(35.681674, 48.493653) rotate(60.032677) translate(-35.681674, -48.493653) " x="34.9306832" y="47.2431681" width="1.502" height="2.501"></rect>
                <rect id="Rectangle-path" transform="translate(31.346933, 51.000036) rotate(59.994310) translate(-31.346933, -51.000036) " x="30.5969116" y="49.7500007" width="1.5" height="2.5"></rect>
                <rect id="Rectangle-path" transform="translate(27.013966, 53.500158) rotate(59.994310) translate(-27.013966, -53.500158) " x="26.2639453" y="52.2496227" width="1.5" height="2.501"></rect>
                <rect id="Rectangle-path" transform="translate(74.652868, 66.008524) rotate(30.018478) translate(-74.652868, -66.008524) " x="73.4028158" y="65.2584931" width="2.5" height="1.5"></rect>
                <rect id="Rectangle-path" transform="translate(70.322053, 63.504831) rotate(29.987939) translate(-70.322053, -63.504831) " x="69.0715972" y="62.7548571" width="2.501" height="1.5"></rect>
                <rect id="Rectangle-path" transform="translate(52.986426, 53.502364) rotate(209.987939) translate(-52.986426, -53.502364) " x="51.7359707" y="52.7523901" width="2.501" height="1.5"></rect>
                <rect id="Rectangle-path" transform="translate(65.978846, 61.003444) rotate(30.013517) translate(-65.978846, -61.003444) " x="64.7293569" y="60.2534506" width="2.499" height="1.5"></rect>
                <rect id="Rectangle-path" transform="translate(44.328020, 48.500898) rotate(209.987939) translate(-44.328020, -48.500898) " x="43.0775647" y="47.7499247" width="2.501" height="1.502"></rect>
                <rect id="Rectangle-path" transform="translate(48.660075, 51.002048) rotate(209.987939) translate(-48.660075, -51.002048) " x="47.4096193" y="50.2520749" width="2.501" height="1.5"></rect>
                <rect id="Rectangle-path" transform="translate(46.503752, 72.255227) rotate(209.987939) translate(-46.503752, -72.255227) " x="45.2532965" y="71.5047533" width="2.501" height="1.501"></rect>
                <rect id="Rectangle-path" transform="translate(50.827221, 74.750639) rotate(209.987939) translate(-50.827221, -74.750639) " x="49.5767649" y="74.0006657" width="2.501" height="1.5"></rect>
                <rect id="Rectangle-path" transform="translate(55.166013, 77.257317) rotate(-59.994310) translate(-55.166013, -77.257317) " x="54.4159923" y="76.0067824" width="1.5" height="2.501"></rect>
                <rect id="Rectangle-path" transform="translate(33.497064, 72.254708) rotate(239.978656) translate(-33.497064, -72.254708) " x="32.7470981" y="71.0042649" width="1.5" height="2.501"></rect>
                <rect id="Rectangle-path" transform="translate(24.835214, 77.257057) rotate(239.999272) translate(-24.835214, -77.257057) " x="24.0847305" y="76.0070845" width="1.501" height="2.5"></rect>
                <rect id="Rectangle-path" transform="translate(29.168614, 74.749121) rotate(239.994310) translate(-29.168614, -74.749121) " x="28.4185931" y="73.4985856" width="1.5" height="2.501"></rect>
                <rect id="Rectangle-path" transform="translate(35.678871, 25.998163) rotate(59.978656) translate(-35.678871, -25.998163) " x="34.9289044" y="24.747719" width="1.5" height="2.501"></rect>
                <rect id="Rectangle-path" transform="translate(31.347580, 28.498069) rotate(60.007099) translate(-31.347580, -28.498069) " x="30.5975694" y="27.2475509" width="1.5" height="2.501"></rect>
                <rect id="Rectangle-path" transform="translate(27.010998, 30.998509) rotate(60.007099) translate(-27.010998, -30.998509) " x="26.2609869" y="29.7479912" width="1.5" height="2.501"></rect>
                <rect id="Rectangle-path" transform="translate(14.016171, 38.505356) rotate(59.994310) translate(-14.016171, -38.505356) " x="13.2661496" y="37.2548213" width="1.5" height="2.501"></rect>
                <rect id="Rectangle-path" transform="translate(9.684277, 41.005828) rotate(59.978656) translate(-9.684277, -41.005828) " x="8.93431075" y="39.755384" width="1.5" height="2.501"></rect>
                <rect id="Rectangle-path" transform="translate(5.353566, 43.500430) rotate(150.012061) translate(-5.353566, -43.500430) " x="4.10311009" y="42.7504562" width="2.501" height="1.5"></rect>
                <rect id="Rectangle-path" transform="translate(65.986889, 38.502952) rotate(210.000728) translate(-65.986889, -38.502952) " x="64.7364165" y="37.7529685" width="2.501" height="1.5"></rect>
                <rect id="Rectangle-path" transform="translate(44.322715, 25.993505) rotate(29.987939) translate(-44.322715, -25.993505) " x="43.0717597" y="25.2435312" width="2.502" height="1.5"></rect>
                <rect id="Rectangle-path" transform="translate(52.989705, 30.999867) rotate(30.013517) translate(-52.989705, -30.999867) " x="51.7397157" y="30.2498734" width="2.5" height="1.5"></rect>
                <rect id="Rectangle-path" transform="translate(48.654795, 28.498018) rotate(30.000728) translate(-48.654795, -28.498018) " x="47.4043225" y="27.7480345" width="2.501" height="1.5"></rect>
                <rect id="Rectangle-path" transform="translate(74.653813, 43.506470) rotate(-60.007099) translate(-74.653813, -43.506470) " x="73.9038016" y="42.2559514" width="1.5" height="2.501"></rect>
                <rect id="Rectangle-path" transform="translate(70.321045, 41.003886) rotate(210.000728) translate(-70.321045, -41.003886) " x="69.0705725" y="40.2539025" width="2.501" height="1.5"></rect>
            </g>
        </g>
    </g>
</svg>