<?xml version="1.0" encoding="UTF-8"?>
<svg width="84px" height="90px" viewBox="0 0 84 90" version="1.1" xmlns="http://www.w3.org/2000/svg" xmlns:xlink="http://www.w3.org/1999/xlink">
    <!-- Generator: Sketch 39.1 (31720) - http://www.bohemiancoding.com/sketch -->
    <title>noun_158216_cc</title>
    <desc>Created with Sketch.</desc>
    <defs></defs>
    <g id="Page-1" stroke="none" stroke-width="1" fill="none" fill-rule="evenodd">
        <g id="noun_158216_cc" fill="#89837B">
            <path d="M72.382,89.106 C72.411,89.106 72.452,89.096 72.491,89.085 L83.061,89.085 C83.241,89.085 83.401,88.984 83.493,88.835 L83.493,88.824 C83.591,88.734 83.653,88.605 83.653,88.466 L83.653,20.006 L83.591,19.766 L73.661,1.296 L73.661,1.286 L73.581,1.146 C73.542,1.085 73.501,1.036 73.452,0.996 C73.401,0.956 73.339,0.926 73.27,0.916 C73.249,0.916 73.241,0.906 73.221,0.906 C73.192,0.896 73.159,0.896 73.141,0.896 L62.655,0.896 C62.596,0.886 62.524,0.886 62.454,0.906 C62.235,0.956 62.085,1.156 62.085,1.376 L62.085,18.046 L53.187,1.286 L53.107,1.126 C53.068,1.057 53.017,0.996 52.958,0.966 C52.891,0.916 52.798,0.897 52.708,0.897 L42.038,0.897 C41.988,0.887 41.928,0.897 41.878,0.907 C41.658,0.957 41.508,1.157 41.508,1.377 L41.508,18.058 L32.419,1.148 C32.309,0.948 32.059,0.847 31.839,0.918 L31.829,0.918 C31.788,0.908 31.759,0.898 31.708,0.898 L21.418,0.898 C21.387,0.898 21.347,0.898 21.315,0.908 L21.295,0.908 C21.265,0.918 21.246,0.918 21.225,0.937 C21.174,0.958 21.125,0.988 21.084,1.027 C21.022,1.078 20.975,1.148 20.955,1.238 C20.934,1.277 20.924,1.328 20.924,1.368 L20.924,1.389 L20.924,18.059 L11.855,1.199 L11.834,1.149 C11.834,1.149 11.834,1.139 11.824,1.139 C11.803,1.098 11.785,1.069 11.754,1.038 C11.725,1.008 11.685,0.988 11.645,0.968 C11.617,0.938 11.565,0.928 11.525,0.918 C11.486,0.908 11.446,0.898 11.408,0.898 L0.927,0.898 C0.857,0.888 0.786,0.888 0.716,0.908 C0.497,0.958 0.347,1.158 0.347,1.388 L0.347,69.988 C0.347,70.057 0.368,70.137 0.409,70.209 L10.169,88.758 C10.23,88.97 10.419,89.111 10.64,89.111 C10.702,89.111 10.759,89.099 10.82,89.07 L10.833,89.07 C10.872,89.091 10.9,89.091 10.94,89.091 L21.4,89.091 C21.65,89.091 21.859,88.911 21.88,88.661 C21.88,88.65 21.89,88.65 21.89,88.64 C21.911,88.588 21.919,88.531 21.919,88.47 L21.909,20.008 L21.909,3.366 L30.727,20.126 L30.727,68.138 C30.727,68.228 30.748,68.318 30.796,68.398 L31.007,68.728 L31.017,68.748 L41.568,88.828 C41.659,89.019 41.869,89.129 42.079,89.088 L42.089,89.088 L42.11,89.088 L51.791,89.088 C52.062,89.088 52.28,88.879 52.28,88.6 C52.291,88.569 52.291,88.528 52.291,88.498 L52.291,20.498 L62.092,20.498 L62.092,69.988 C62.092,70.058 62.113,70.138 62.154,70.209 L71.914,88.758 C71.972,88.967 72.159,89.104 72.382,89.106 L72.382,89.106 Z M11.128,88.104 L11.128,20.495 L20.929,20.495 L20.939,69.557 L20.939,88.106 L11.128,88.106 L11.128,88.104 L11.128,88.104 Z M1.329,3.366 L10.147,20.126 L10.147,86.616 L1.329,69.854 L1.329,3.366 L1.329,3.366 Z M20.6,19.516 L11.13,19.516 C11.068,19.516 11.009,19.526 10.95,19.557 L1.647,1.876 L11.107,1.876 L20.6,19.516 L20.6,19.516 Z M41.508,20.496 L41.508,86.617 L31.778,68.077 C31.758,68.037 31.729,68.006 31.711,67.975 L31.711,20.496 L41.508,20.496 L41.508,20.496 Z M41.181,19.516 L31.71,19.516 C31.648,19.516 31.589,19.526 31.527,19.557 L22.227,1.876 L31.687,1.876 L41.181,19.516 L41.181,19.516 Z M42.49,3.366 L51.307,20.126 L51.307,88.105 L42.49,88.105 L42.49,3.366 L42.49,3.366 Z M61.771,19.516 L52.291,19.516 C52.23,19.516 52.172,19.526 52.111,19.557 L42.81,1.876 L52.4,1.876 L61.771,19.516 L61.771,19.516 Z M72.692,19.557 L63.392,1.876 L72.851,1.876 L82.339,19.516 L72.87,19.516 C72.812,19.516 72.749,19.525 72.692,19.557 L72.692,19.557 Z M71.888,20.127 L71.888,86.617 L63.07,69.856 L63.07,3.366 L71.888,20.127 L71.888,20.127 Z M82.669,88.106 L72.87,88.106 L72.87,20.496 L82.669,20.496 L82.669,88.104 L82.669,88.106 L82.669,88.106 Z" id="Shape"></path>
        </g>
    </g>
</svg>