<?xml version="1.0" encoding="UTF-8"?>
<svg width="42px" height="81px" viewBox="0 0 42 81" version="1.1" xmlns="http://www.w3.org/2000/svg" xmlns:xlink="http://www.w3.org/1999/xlink">
    <!-- Generator: Sketch 39.1 (31720) - http://www.bohemiancoding.com/sketch -->
    <title>Shape</title>
    <desc>Created with Sketch.</desc>
    <defs></defs>
    <g id="Page-1" stroke="none" stroke-width="1" fill="none" fill-rule="evenodd">
        <g id="palm2" fill="#FFFFFF">
            <g id="Page-1">
                <g id="noun_1193546_cc">
                    <path d="M12.958,13.066 C9.134,11.659 4.992,11.826 1.294,13.537 C0.793,13.768 0.574,14.362 0.807,14.864 C1.038,15.364 1.632,15.588 2.134,15.351 C7.968,12.656 14.777,14.58 18.418,19.6 C16.961,18.525 15.168,17.881 13.222,17.881 C8.381,17.881 4.443,21.819 4.443,26.66 C4.443,27.213 4.89,27.66 5.443,27.66 C5.996,27.66 6.443,27.213 6.443,26.66 C6.443,22.922 9.484,19.881 13.222,19.881 C16.959,19.881 20,22.922 20,26.66 L20,78.038 L17.823,78.038 C17.27,78.038 16.823,78.485 16.823,79.038 C16.823,79.591 17.27,80.038 17.823,80.038 L24.95,80.038 C25.503,80.038 25.95,79.591 25.95,79.038 C25.95,78.485 25.503,78.038 24.95,78.038 L22,78.038 L22,26.66 C22,22.922 25.041,19.881 28.778,19.881 C32.516,19.881 35.557,22.922 35.557,26.66 C35.557,27.213 36.004,27.66 36.557,27.66 C37.11,27.66 37.557,27.213 37.557,26.66 C37.557,21.819 33.619,17.881 28.778,17.881 C26.832,17.881 25.039,18.525 23.582,19.6 C27.223,14.58 34.032,12.655 39.866,15.352 C40.369,15.589 40.963,15.365 41.193,14.865 C41.425,14.363 41.207,13.769 40.706,13.538 C37.008,11.828 32.864,11.659 29.042,13.067 C26.276,14.083 23.926,15.843 22.186,18.134 C23.205,11.832 28.667,7 35.252,7 C35.805,7 36.252,6.553 36.252,6 C36.252,5.447 35.805,5 35.252,5 C29.578,5 24.627,8.121 22,12.731 L22,1.021 C22,0.468 21.553,0.021 21,0.021 C20.447,0.021 20,0.468 20,1.021 L20,12.73 C17.373,8.121 12.422,5 6.748,5 C6.195,5 5.748,5.447 5.748,6 C5.748,6.553 6.195,7 6.748,7 C13.333,7 18.795,11.832 19.814,18.133 C18.074,15.843 15.724,14.083 12.958,13.066 L12.958,13.066 L12.958,13.066 Z" id="Shape"></path>
                </g>
            </g>
        </g>
    </g>
</svg>