<?xml version="1.0" encoding="UTF-8"?>
<svg width="86px" height="54px" viewBox="0 0 86 54" version="1.1" xmlns="http://www.w3.org/2000/svg" xmlns:xlink="http://www.w3.org/1999/xlink">
    <!-- Generator: Sketch 39.1 (31720) - http://www.bohemiancoding.com/sketch -->
    <title>noun_1062237_cc</title>
    <desc>Created with Sketch.</desc>
    <defs></defs>
    <g id="Page-1" stroke="none" stroke-width="1" fill="none" fill-rule="evenodd">
        <g id="noun_1062237_cc" transform="translate(0.000000, -1.000000)" fill="#89837B">
            <path d="M0.8125,1 C0.334418017,1.09122154 -0.00857640108,1.51336852 0,2 L0,54 C5.52179053e-05,54.5522619 0.447738124,54.9999448 1,55 L9,55 C9.55226188,54.9999448 9.99994478,54.5522619 10,54 L10,41 L76,41 L76,54 C76.0000552,54.5522619 76.4477381,54.9999448 77,55 L85,55 C85.5522619,54.9999448 85.9999448,54.5522619 86,54 L86,32 C85.9999448,31.4477381 85.5522619,31.0000552 85,31 L10,31 L10,2 C9.99994478,1.44773812 9.55226188,1.00005522 9,1 L1,1 C0.968767182,0.998534497 0.937482818,0.998534497 0.90625,1 C0.875017182,0.998534497 0.843732818,0.998534497 0.8125,1 L0.8125,1 Z M2,3 L8,3 L8,32 C8.00005522,32.5522619 8.44773812,32.9999448 9,33 L84,33 L84,53 L78,53 L78,40 C77.9999448,39.4477381 77.5522619,39.0000552 77,39 L9,39 C8.44773812,39.0000552 8.00005522,39.4477381 8,40 L8,53 L2,53 L2,3 L2,3 Z M22,11 C17.593567,11 14,14.593567 14,19 C14,23.406433 17.593567,27 22,27 C26.406433,27 30,23.406433 30,19 C30,14.593567 26.406433,11 22,11 L22,11 Z M42,11 C37.593567,11 34,14.593567 34,19 C34,23.406433 37.593567,27 42,27 L85,27 C85.5522619,26.9999448 85.9999448,26.5522619 86,26 L86,12 C86.0051003,11.6393641 85.8156247,11.3039186 85.5041272,11.1221123 C85.1926296,10.9403059 84.8073704,10.9403059 84.4958728,11.1221123 C84.1843753,11.3039186 83.9948997,11.6393641 84,12 L84,25 L42,25 C38.674447,25 36,22.325553 36,19 C36,15.674447 38.674447,13 42,13 L79,13 C79.3606359,13.0051003 79.6960814,12.8156247 79.8778877,12.5041272 C80.0596941,12.1926296 80.0596941,11.8073704 79.8778877,11.4958728 C79.6960814,11.1843753 79.3606359,10.9948997 79,11 L42,11 L42,11 Z M22,13 C25.325553,13 28,15.674447 28,19 C28,22.325553 25.325553,25 22,25 C18.674447,25 16,22.325553 16,19 C16,15.674447 18.674447,13 22,13 L22,13 Z" id="Shape"></path>
        </g>
    </g>
</svg>